<svg id="Layer_1" data-name="Layer 1" xmlns="http://www.w3.org/2000/svg" viewBox="0 0 44 44"><title>smm_icons</title><path d="M36.44,44a.63.63,0,0,1-.45-.19l-6.74-6.74H7.7A7.71,7.71,0,0,1,0,29.37V7.7A7.71,7.71,0,0,1,7.7,0H36.3A7.71,7.71,0,0,1,44,7.7V29.37A7.74,7.74,0,0,1,37.05,37l0,6.33a.63.63,0,0,1-.63.64ZM7.7,1.27A6.44,6.44,0,0,0,1.27,7.7V29.37A6.44,6.44,0,0,0,7.7,35.8H29.51A.63.63,0,0,1,30,36l5.84,5.84,0-5.39a.63.63,0,0,1,.62-.64,6.46,6.46,0,0,0,6.32-6.43V7.7A6.44,6.44,0,0,0,36.3,1.27Z"/><path d="M8.1,16.81a.64.64,0,0,1-.23-1.23L33.36,5.82A.64.64,0,1,1,33.82,7L8.33,16.77A.65.65,0,0,1,8.1,16.81Z"/><path d="M26.13,31.38l-.19,0a.63.63,0,0,1-.42-.79L33,6.22a.63.63,0,1,1,1.21.37L26.74,30.93A.63.63,0,0,1,26.13,31.38Z"/><path d="M17.57,19a.63.63,0,0,1-.38-1.14l16-12a.63.63,0,0,1,.76,1l-16,12A.63.63,0,0,1,17.57,19Z"/><path d="M20.48,21.91A.64.64,0,0,1,20,20.86L33.11,6a.63.63,0,1,1,1,.84L21,21.7A.63.63,0,0,1,20.48,21.91Z"/><path d="M16.9,23.73a.63.63,0,0,1-.29-1.2l3.58-1.82a.64.64,0,1,1,.58,1.13l-3.58,1.82A.62.62,0,0,1,16.9,23.73Z"/><path d="M16.9,23.73h-.09a.64.64,0,0,1-.54-.72l.67-4.73a.65.65,0,0,1,.72-.54.64.64,0,0,1,.54.72l-.67,4.73A.64.64,0,0,1,16.9,23.73Z"/><path d="M17.57,19l-.14,0L8,16.8a.64.64,0,1,1,.29-1.24l9.47,2.18A.64.64,0,0,1,17.57,19Z"/><path d="M26.13,31.38a.64.64,0,0,1-.55-.31L19.93,21.6A.64.64,0,0,1,21,21l5.65,9.47a.63.63,0,0,1-.54,1Z"/></svg>