<svg id="Layer_1" data-name="Layer 1" xmlns="http://www.w3.org/2000/svg" viewBox="0 0 44 44"><title>smm_icons</title><path d="M30.07,16.47a.61.61,0,0,1-.41-.15l-.12-.11L25.31,12h0a3.69,3.69,0,0,1,4.78-5.56A3.69,3.69,0,0,1,34.87,12l-4.24,4.25-.09.09A.72.72,0,0,1,30.07,16.47ZM26.23,11.1,30.08,15l3.86-3.87a2.42,2.42,0,0,0-3.43-3.41.63.63,0,0,1-.86,0,2.42,2.42,0,0,0-3.43,3.41Z"/><path d="M34,44H10A10,10,0,0,1,0,34V10A10,10,0,0,1,10,0H34A10,10,0,0,1,44,10V34A10,10,0,0,1,34,44ZM10,1.27A8.71,8.71,0,0,0,1.27,10V34a8.71,8.71,0,0,0,8.7,8.7H34a8.71,8.71,0,0,0,8.7-8.7V10A8.71,8.71,0,0,0,34,1.27Z"/><path d="M30.08,37.65a.63.63,0,0,1-.63-.63V23.15a.63.63,0,0,1,1.27,0V37A.63.63,0,0,1,30.08,37.65Z"/><path d="M37,30.72H23.15a.63.63,0,0,1,0-1.27H37a.63.63,0,0,1,0,1.27Z"/><path d="M12.18,14a4.1,4.1,0,1,1,4.1-4.1A4.1,4.1,0,0,1,12.18,14Zm0-6.93A2.83,2.83,0,1,0,15,9.87,2.83,2.83,0,0,0,12.18,7Z"/><path d="M18,22.06a.63.63,0,0,1-.63-.63A5.14,5.14,0,0,0,7,21.42a.63.63,0,0,1-1.27,0,6.41,6.41,0,0,1,12.82,0A.63.63,0,0,1,18,22.06Z"/></svg>