<svg id="Layer_1" data-name="Layer 1" xmlns="http://www.w3.org/2000/svg" viewBox="0 0 44 44"><title>smm_icons</title><path d="M42.21,13.3h0a6.7,6.7,0,0,0-2.84-2.16l-.17-.07,0-.18A7.39,7.39,0,0,0,34.33,5,7.66,7.66,0,0,0,29,4.89L28.75,5l-.1-.29A7.54,7.54,0,0,0,21.45,0,8,8,0,0,0,16,2l-.12.11-.16,0a7.29,7.29,0,0,0-2-.27A8.22,8.22,0,0,0,9.33,3.19,8.15,8.15,0,0,0,6.16,7a6.88,6.88,0,0,0-.46,3.53l0,.28-.27.06a6.72,6.72,0,0,0-5.2,6.51A6.67,6.67,0,0,0,6.79,24H37a6.67,6.67,0,0,0,6.59-6.67A6.6,6.6,0,0,0,42.21,13.3Zm-1.46,7.84A5.38,5.38,0,0,1,37,22.75H34.52l-.06-.22a5.88,5.88,0,0,1-.17-.78,3.49,3.49,0,0,1,.32-2.28,3.59,3.59,0,0,1,3-1.4.63.63,0,0,0,.58-.63.66.66,0,0,0-.22-.48.64.64,0,0,0-.46-.15,4.74,4.74,0,0,0-4,2A4.68,4.68,0,0,0,33,22c0,.13,0,.25.07.36l.08.37-.37,0H18.94l.44-.5a9.92,9.92,0,0,0,1-1.38,8.08,8.08,0,0,0,1.09-3l0-.33.33.08a5.53,5.53,0,0,0,3.49-.16,4.77,4.77,0,0,0,2.57-3,.6.6,0,0,0,0-.21A.63.63,0,0,0,26.74,14a3.58,3.58,0,0,1-1.86,2.27,4.59,4.59,0,0,1-3.14,0l-.18-.06,0-.19a9,9,0,0,0-1-3.23.63.63,0,0,0-1.12.59C22.15,18.56,18,22,17.09,22.69l-.08.06H6.92a5.41,5.41,0,0,1-.34-10.8h.05a5.67,5.67,0,0,1,3.28,1.3l.31.27-.35.22a4.46,4.46,0,0,0-.52.37,4.27,4.27,0,0,0-1.48,3.4.63.63,0,1,0,1.26,0,3,3,0,0,1,1.51-2.77l.29-.16.14.3A4.32,4.32,0,0,0,11.76,16,3.43,3.43,0,0,0,15.24,17a.63.63,0,0,0,.49-.62.6.6,0,0,0,0-.14.63.63,0,0,0-.28-.4.61.61,0,0,0-.48-.08,2.16,2.16,0,0,1-2.21-.62A3.21,3.21,0,0,1,12.1,14a.62.62,0,0,0,0-.13,6.24,6.24,0,0,0-4.79-3.18L7,10.7l0-.22a5.51,5.51,0,0,1,.33-3.06A7,7,0,0,1,10,4.24a6.81,6.81,0,0,1,4.52-1.09l.45.06-.22.39a5.79,5.79,0,0,0-.5,1.15,4.46,4.46,0,0,0,1.16,4.55.63.63,0,0,0,.89,0,.63.63,0,0,0,0-.89,3.19,3.19,0,0,1-.89-3.26,4.65,4.65,0,0,1,.87-1.63l.13-.18.09-.07a6.65,6.65,0,0,1,4.9-2,6.15,6.15,0,0,1,6.06,4.08l.07.22-.2.12A22.24,22.24,0,0,0,25.1,7.3l-.41.33-.08-.52a2.92,2.92,0,0,0-.47-1.23,3.31,3.31,0,0,0-2.93-1.25.63.63,0,1,0,0,1.26,2.17,2.17,0,0,1,1.89.7,3.21,3.21,0,0,1,0,2.52.63.63,0,0,0,1,.69,22.75,22.75,0,0,1,4.28-3.27l.16,0a6.29,6.29,0,0,1,5.29-.34,6.18,6.18,0,0,1,3.89,4.15l.11.42-.43,0a5.2,5.2,0,0,0-2.81.45,5.72,5.72,0,0,0-2.84,3.49A.63.63,0,1,0,33,15,4.14,4.14,0,0,1,36.07,12a4.61,4.61,0,0,1,2.11.12h.11l.14.05a5.43,5.43,0,0,1,3.89,5.19A5.37,5.37,0,0,1,40.75,21.14Z"/><path d="M18.85,44a.67.67,0,0,1-.51-1.1l5.16-6.19H18.85a.67.67,0,0,1-.52-1.09l4.86-6.07a.67.67,0,1,1,1,.83l-4,5h4.68a.67.67,0,0,1,.51,1.1l-6.07,7.29A.67.67,0,0,1,18.85,44Z"/><path d="M29.12,37a.67.67,0,0,1-.51-1.1l2.83-3.39H29.12a.67.67,0,0,1-.52-1.09l3-3.74a.67.67,0,1,1,1,.83l-2.12,2.65h2.35a.67.67,0,0,1,.51,1.1l-3.74,4.49A.67.67,0,0,1,29.12,37Z"/><path d="M10.9,36.95a.67.67,0,0,1-.51-1.1l2.83-3.39H10.9a.67.67,0,0,1-.52-1.09l3-3.74a.67.67,0,1,1,1,.83l-2.12,2.65h2.35a.67.67,0,0,1,.51,1.1l-3.74,4.49A.67.67,0,0,1,10.9,36.95Z"/></svg>